<svg xmlns="http://www.w3.org/2000/svg" width="640" height="360" viewBox="0 0 640 360" role="img" aria-label="Exemplos de copos personalizados JH Gomes">
  <rect width="640" height="360" fill="#0f172a"/>
  <rect x="24" y="24" width="592" height="312" rx="12" fill="#1e293b" stroke="#334155"/>
  <text x="320" y="52" fill="#94a3b8" font-family="Arial, sans-serif" font-size="14" text-anchor="middle">JH Gomes ∑ Copos personalizados</text>
  <g transform="translate(80 90)">
    <rect x="0" y="40" width="90" height="120" rx="8" fill="#f97316"/>
    <rect x="12" y="52" width="66" height="36" rx="4" fill="#fff"/>
    <text x="45" y="74" fill="#ea580c" font-family="Arial, sans-serif" font-size="10" text-anchor="middle">LOGO</text>
    <rect x="130" y="30" width="90" height="130" rx="8" fill="#38bdf8"/>
    <rect x="142" y="42" width="66" height="36" rx="4" fill="#fff"/>
    <text x="175" y="64" fill="#0284c7" font-family="Arial, sans-serif" font-size="10" text-anchor="middle">EVENTO</text>
    <rect x="260" y="50" width="90" height="110" rx="8" fill="#22c55e"/>
    <rect x="272" y="62" width="66" height="36" rx="4" fill="#fff"/>
    <text x="305" y="84" fill="#15803d" font-family="Arial, sans-serif" font-size="10" text-anchor="middle">CAF…</text>
    <rect x="390" y="35" width="90" height="125" rx="8" fill="#a855f7"/>
    <rect x="402" y="47" width="66" height="36" rx="4" fill="#fff"/>
    <text x="435" y="69" fill="#7e22ce" font-family="Arial, sans-serif" font-size="10" text-anchor="middle">MARCA</text>
  </g>
  <text x="320" y="310" fill="#e2e8f0" font-family="Arial, sans-serif" font-size="16" text-anchor="middle">Exemplos de copos personalizados produzidos pela JH Gomes</text>
  <text x="320" y="334" fill="#64748b" font-family="Arial, sans-serif" font-size="12" text-anchor="middle">Placeholder est·tico v0.2.0  substituir por mockup do personalizador em v0.3.0</text>
</svg>
